PathFileType	4	(X/Y/Z)	RBDS020\RBDS020runT25.trc
DataRate	CameraRate	NumFrames	NumMarkers	Units	OrigDataRate	OrigDataStartFrame	OrigNumFrames
150.000000	150.000000	4	33	mm	150.000000	2812	4500
Frame#	Time	L.ASIS			L.Heel.Bottom			L.Heel.Lateral			L.Heel.Top			L.Iliac.Crest			L.MT1			L.MT5			L.PSIS			L.Shank.Bottom.Lateral			L.Shank.Bottom.Medial			L.Shank.Top.Lateral			L.Shank.Top.Medial			L.Thigh.Bottom.Lateral			L.Thigh.Bottom.Medial			L.Thigh.Top.Lateral			L.Thigh.Top.Medial			R.ASIS			R.ASY			R.Heel.Bottom			R.Heel.Lateral			R.Heel.Top			R.Iliac.Crest			R.MT1			R.MT5			R.PSIS			R.Shank.Bottom.Lateral			R.Shank.Bottom.Medial			R.Shank.Top.Lateral			R.Shank.Top.Medial			R.Thigh.Bottom.Lateral			R.Thigh.Bottom.Medial			R.Thigh.Top.Lateral			R.Thigh.Top.Medial			
		X1	Y1	Z1	X2	Y2	Z2	X3	Y3	Z3	X4	Y4	Z4	X5	Y5	Z5	X6	Y6	Z6	X7	Y7	Z7	X8	Y8	Z8	X9	Y9	Z9	X10	Y10	Z10	X11	Y11	Z11	X12	Y12	Z12	X13	Y13	Z13	X14	Y14	Z14	X15	Y15	Z15	X16	Y16	Z16	X17	Y17	Z17	X18	Y18	Z18	X19	Y19	Z19	X20	Y20	Z20	X21	Y21	Z21	X22	Y22	Z22	X23	Y23	Z23	X24	Y24	Z24	X25	Y25	Z25	X26	Y26	Z26	X27	Y27	Z27	X28	Y28	Z28	X29	Y29	Z29	X30	Y30	Z30	X31	Y31	Z31	X32	Y32	Z32	X33	Y33	Z33	

2813	18.74666666666667	2235.362483062801	1049.040695656076	915.3802961897873	2302.229349008776	25.67471749377083	991.5633455720658	2315.131208834614	49.39426025513522	944.6191019928282	2297.814424194313	73.5351995985412	987.323660287816	2173.495522047859	1095.048240379983	874.9343216003123	2509.357501641574	105.1338982279045	996.2951451732822	2469.20876780086	74.08207574197561	897.2928489395956	2076.932627104092	1082.492609848913	973.785075166221	2333.717159245465	185.1127005517937	912.7124173777667	2295.223432304422	182.7266497285318	952.8820502746192	2310.7758855394	260.6702066568976	896.0825049694107	2274.014875086565	259.4636082490472	936.0762901428259	2242.092114048542	698.9322847427899	849.6992893478199	2183.279005883882	678.9666450190259	887.3967697632326	2200.318641976067	799.8881669373411	838.3123693585427	2145.173001894114	781.2733183616415	876.0844095904205	2233.505017673319	1027.075676370591	1141.391676506149	1785.29943210585	157.6303134446779	1118.908460529423	1641.944149941527	288.7879720079543	1097.629292649283	1665.671903729144	274.2525536123346	1143.81180018121	1681.562200170018	304.3721655138635	1101.388674823402	2191.199181632814	1087.296066114904	1166.641307610232	1767.400462367739	117.6733779116231	1070.536100939245	1737.535882954416	128.4666711645609	1175.144358817215	2079.331125412256	1081.9519684666	1073.378831108536	1807.431920252115	320.0797756055638	1165.097496978017	1784.500670413255	354.4559772167191	1134.528392321788	1870.659618655529	375.7432073761619	1177.202909671873	1842.058431959702	409.8229987333917	1147.854071921702	2084.464331295199	658.1405921221492	1182.490204541428	2031.455920951751	666.5213718608154	1135.383983973527	2089.686089105345	768.6674429718755	1192.371542828613	2039.623398879423	775.5339316408272	1146.430509460338	
2814	18.75333333333333	2234.736669509004	1046.251306275123	913.9583010586688	2294.07700367625	24.48281523216238	992.5648910221544	2307.577958563411	47.81420472280931	945.6437441090268	2290.968545748667	72.28251200071858	988.4786484404206	2172.417534348927	1091.61073070152	874.4808190361056	2502.587656061708	98.93478094248489	997.0700090724299	2461.611692574446	68.98356093459513	898.0596458013484	2076.249261293061	1078.038089818718	974.2311522448847	2328.560207608657	181.1851484508979	913.2494671747373	2289.891284791677	179.3357796201208	953.2421523666324	2306.567751220572	256.9371379535805	896.3552130817516	2269.625210515572	256.263661036088	936.1614683983825	2241.526094965061	695.8644003359142	850.2308811659524	2182.288180935427	675.8919647215797	887.2210070327272	2199.746566958339	796.7909369705294	838.3512619849464	2144.431338429308	778.2809013790902	875.8906931321244	2233.83236394348	1023.591495600093	1140.563962063189	1782.746625445264	162.7297334843264	1120.107298445591	1643.615348764227	297.4035389148939	1094.368302688661	1666.262730145422	283.0681429057405	1141.140916781353	1683.607927016078	311.8843349877815	1098.492144948502	2191.253310831609	1083.416895181121	1166.558651957584	1764.394121400991	122.4858463446613	1072.077422914998	1733.462879392412	136.0203340473957	1176.036439201623	2079.331654322882	1077.098098279454	1073.783368981925	1809.054902064837	324.642292455876	1163.826286052599	1787.805622580668	359.2363574618585	1132.361124341927	1873.941593412585	378.2765589996191	1176.032259671373	1847.056853899101	412.8273260890519	1145.654444944129	2090.555742669375	652.0106877895902	1182.449812227398	2037.684854469674	659.0487479030116	1134.914346427009	2093.406352776401	762.5291288468924	1192.033318365942	2043.346396781732	768.2216079984956	1145.933274365203	
2815	18.76	2233.99711022224	1043.025288795969	912.5789443715771	2283.625293881988	23.64751446111361	993.389640548289	2297.982844633939	46.57644495787741	946.5697052112696	2282.142615407637	71.38083943330237	989.5698873240193	2171.35840828859	1087.73658520838	874.0229715239396	2493.918172525205	91.75857733172955	998.1721309237776	2452.122070452965	63.45981484834918	898.9661503374771	2075.441708822515	1073.211057509173	974.6120557019669	2322.288914597164	177.1319747115046	913.8585324976139	2283.308273584178	176.0489245652809	953.5200090113103	2301.680908684032	253.1573592128067	896.6000331410609	2264.443580179668	253.2312054752071	936.0837272919309	2241.156822072887	692.578130006669	850.6774331962155	2181.494345688083	672.4945405988738	886.9088068170405	2199.244109325577	793.4154039859972	838.3495239538623	2143.765347674141	774.9201990170974	875.6209193768046	2234.063021022212	1019.734855082885	1139.765942072887	1781.337289839804	167.6226878242384	1121.307749214781	1646.580496481089	305.6243054312613	1090.96467881891	1668.187079178769	291.6262865443348	1138.324617680629	1686.942977679126	318.9864198879268	1095.404477057549	2191.304787515295	1079.126565659815	1166.488829474066	1762.513174605984	127.0741720662421	1073.699003600153	1730.690896216827	143.5753873807766	1176.953327916744	2079.169579858554	1071.861960137424	1074.087838635211	1811.739270985106	328.9841515858039	1162.445084265758	1792.20410576853	363.6462465786169	1130.018672401957	1878.1754976046	380.5826547058491	1174.757959012256	1853.045616787052	415.4411641689251	1143.272861277307	2096.718880092244	645.6778390080372	1182.403838385591	2044.138926747786	651.2658363602878	1134.300016728233	2097.056191847192	756.1457495041117	1191.585580342617	2047.184102914121	760.5648727213287	1145.158823479422	
2816	18.76666666666667	2233.113546682864	1039.396244272088	911.2787723523381	2271.230267368176	23.16021284594271	994.0428685101991	2286.61805901981	45.71164656184667	947.3964761701288	2271.574413057635	70.81987677805398	990.5950136584364	2170.308018981266	1083.435297513983	873.5574434715493	2483.55803760195	84.07125516527614	999.5232597025038	2440.978847742601	57.89508876080551	899.9475560320968	2074.464710183169	1068.07214985927	974.9186464124723	2315.036682169641	173.1495579259238	914.5520479178025	2275.636674729735	173.0563785358093	953.7434931469433	2296.225725692696	249.5013057798426	896.8354921036811	2258.616149534601	250.5294298869973	935.8837498221723	2240.978478255181	689.1576322298764	850.9397741888586	2180.931077226254	668.8476425796016	886.4149028055339	2198.788199166486	789.8419702023979	838.2516923600693	2143.175604601318	771.255054259227	875.2448362509365	2234.151379757635	1015.562348208638	1139.024348143322	1781.11879709904	172.2664430646836	1122.480864722174	1650.821517811205	313.4024072345449	1087.526184032895	1671.458594222159	299.8554188769101	1135.454690003805	1691.551423333882	325.6364690429116	1092.215259671264	2191.29273482862	1074.470041442795	1166.442953165121	1761.778997848191	131.4138128623488	1075.369237204486	1729.295002143934	151.0306399063958	1177.880276441035	2078.779883329143	1066.308955894028	1074.278073278134	1815.523302807705	333.0448576922619	1160.994406735634	1797.693793072275	367.6532019322593	1127.588751086128	1883.402747322149	382.6155405448351	1173.411892611662	1860.022137533094	417.6415949835878	1140.800015859771	2102.969192556928	639.2374565400245	1182.33811317415	2050.790547381645	643.3070008954177	1133.589386682714	2100.678281703891	749.6119291375956	1191.046039457701	2051.138334260174	752.6889350926067	1144.175263791624	
